<?xml version="1.0" encoding="UTF-8" standalone="no"?>
<!DOCTYPE svg PUBLIC "-//W3C//DTD SVG 1.1//EN" "http://www.w3.org/Graphics/SVG/1.1/DTD/svg11.dtd">
<svg version="1.1" xmlns="http://www.w3.org/2000/svg" xmlns:xlink="http://www.w3.org/1999/xlink" preserveAspectRatio="xMidYMid meet" viewBox="471.39841565703614 28.109972041006316 124.68965517241384 191.35632183908052" width="120.96" height="187.2"><defs><path d="M593.09 159C593.09 190.71 566.05 216.47 532.74 216.47C499.44 216.47 472.4 190.71 472.4 159C472.4 127.28 499.44 101.52 532.74 101.52C566.05 101.52 593.09 127.28 593.09 159Z" id="aPwpFJIPG"></path><path d="M519.87 84.28C519.87 114.73 510.86 139.45 499.75 139.45C488.65 139.45 479.64 114.73 479.64 84.28C479.64 53.83 488.65 29.11 499.75 29.11C510.86 29.11 519.87 53.83 519.87 84.28Z" id="d2ehw6jbTL"></path><path d="M585.85 84.28C585.85 114.73 576.83 139.45 565.73 139.45C554.63 139.45 545.62 114.73 545.62 84.28C545.62 53.83 554.63 29.11 565.73 29.11C576.83 29.11 585.85 53.83 585.85 84.28Z" id="a2299Ei2RL"></path><path d="M555.08 133.71C544.71 133.71 542.37 134.52 540.2 136.96C540.2 136.96 540.2 136.96 540.2 136.96C539.03 138.04 537.95 139.21 536.95 138.67C536.14 138.13 535.06 138.04 532.35 138.04C529.65 138.04 528.57 138.13 527.75 138.67C526.76 139.3 525.68 138.04 524.51 136.96C524.51 136.96 524.51 136.96 524.51 136.96C522.34 134.52 520 133.71 509.62 133.71C506.29 133.71 494.2 133.71 490.59 135.15C490.23 135.34 489.96 135.61 489.96 136.06C489.96 136.35 489.96 138.74 489.96 139.03C489.96 139.48 490.32 139.85 490.77 139.94C491.4 140.12 492.12 140.3 492.4 140.48C493.12 140.84 493.84 141.92 493.84 142.91C493.93 145.44 493.93 147.78 494.29 150.49C495.19 157.07 500.69 164.56 509.71 164.56C521.71 164.56 526.4 155.72 527.75 148.96C528.02 147.6 528.11 146.16 528.11 144.9C528.11 144.9 528.11 144.9 528.11 144.9C528.11 142.64 529.92 141.65 532.53 141.65C535.15 141.65 536.86 142.64 536.95 144.9C536.95 144.9 536.95 144.9 536.95 144.9C536.86 146.25 537.04 147.6 537.31 148.96C538.67 155.72 543.36 164.56 555.35 164.56C564.28 164.56 569.88 157.07 570.78 150.49C571.14 147.78 571.05 145.44 571.14 142.91C571.14 142.01 571.86 140.84 572.58 140.48C572.85 140.3 573.66 140.12 574.21 139.94C574.66 139.85 575.02 139.48 575.02 139.03C575.02 138.74 575.02 136.35 575.02 136.06C574.66 135.7 574.39 135.34 574.03 135.15C570.42 133.71 558.42 133.71 555.08 133.71ZM509.53 163.3C501.78 163.3 496.09 156.62 496.09 148.86C496.09 145.71 496.09 143.45 497.27 141.38C499.52 137.32 504.39 135.52 509.53 135.52C514.4 135.52 520.45 136.69 523.42 140.21C525.23 142.37 525.14 145.98 525.05 148.86C524.87 155.9 517.29 163.3 509.53 163.3ZM539.48 148.96C539.39 146.07 539.39 142.46 541.19 140.3C544.17 136.78 550.21 135.61 555.08 135.61C560.22 135.61 565.1 137.41 567.35 141.47C568.52 143.54 568.52 145.8 568.52 148.96C568.52 156.71 562.75 163.39 554.99 163.39C547.24 163.39 539.57 155.99 539.48 148.96Z" id="b9s4Au4Jp"></path></defs><g><g><use xlink:href="#aPwpFJIPG" opacity="1" fill="#9d7965" fill-opacity="0.99"></use><g><use xlink:href="#aPwpFJIPG" opacity="1" fill-opacity="0" stroke="#030202" stroke-width="0" stroke-opacity="1"></use></g></g><g><use xlink:href="#d2ehw6jbTL" opacity="1" fill="#9d7965" fill-opacity="0.99"></use></g><g><use xlink:href="#a2299Ei2RL" opacity="1" fill="#9d7965" fill-opacity="0.99"></use></g><g><use xlink:href="#b9s4Au4Jp" opacity="1" fill="#000000" fill-opacity="1"></use><g><use xlink:href="#b9s4Au4Jp" opacity="1" fill-opacity="0" stroke="#000000" stroke-width="1" stroke-opacity="0"></use></g></g></g></svg>