<?xml version="1.0" encoding="UTF-8" standalone="no"?>
<!DOCTYPE svg PUBLIC "-//W3C//DTD SVG 1.1//EN" "http://www.w3.org/Graphics/SVG/1.1/DTD/svg11.dtd">
<svg version="1.1" xmlns="http://www.w3.org/2000/svg" xmlns:xlink="http://www.w3.org/1999/xlink" preserveAspectRatio="xMidYMid meet" viewBox="488.46008077042524 231.7183908045978 125.189655172414 191.85632183908046" width="120.69" height="187.36"><defs><path d="M584.94 233.4L585.75 233.63L586.55 233.94L587.35 234.34L588.12 234.82L588.89 235.39L589.65 236.03L590.39 236.76L591.12 237.56L591.83 238.43L592.53 239.38L593.22 240.4L593.89 241.49L594.54 242.65L595.17 243.87L595.78 245.16L596.38 246.51L596.96 247.92L597.51 249.39L598.05 250.91L598.56 252.49L599.06 254.13L599.53 255.82L599.97 257.55L600.39 259.34L600.79 261.17L601.16 263.04L601.51 264.96L601.83 266.92L602.12 268.92L602.38 270.96L602.62 273.03L602.82 275.14L603 277.28L603.14 279.45L603.26 281.64L603.34 283.87L603.39 286.12L603.41 288.39L603.39 290.66L603.34 292.91L603.26 295.14L603.14 297.34L603 299.5L602.82 301.64L602.62 303.75L602.38 305.82L602.12 307.86L601.83 309.86L601.51 311.82L601.16 313.74L600.79 315.61L600.39 317.44L599.97 319.23L599.53 320.97L599.06 322.65L598.56 324.29L598.05 325.87L597.53 327.34L597.59 327.41L599 329.17L600.34 330.98L601.6 332.84L602.79 334.75L603.91 336.7L604.95 338.7L605.9 340.74L606.78 342.82L607.57 344.95L608.28 347.11L608.89 349.3L609.42 351.53L609.86 353.79L610.2 356.08L610.45 358.39L610.6 360.74L610.65 363.1L610.6 365.47L610.45 367.81L610.2 370.13L609.86 372.42L609.42 374.68L608.89 376.91L608.28 379.1L607.57 381.26L606.78 383.38L605.9 385.46L604.95 387.51L603.91 389.51L602.79 391.46L601.6 393.37L600.34 395.23L599 397.04L597.59 398.79L596.12 400.5L594.57 402.14L592.97 403.73L591.3 405.26L589.57 406.73L587.78 408.14L585.93 409.48L584.03 410.75L582.08 411.96L580.08 413.09L578.03 414.16L575.93 415.14L573.78 416.06L571.6 416.89L569.37 417.64L567.1 418.31L564.8 418.9L562.46 419.41L560.09 419.82L557.68 420.15L555.25 420.38L552.79 420.53L550.3 420.57L547.82 420.53L545.36 420.38L542.93 420.15L540.52 419.82L538.15 419.41L535.81 418.9L533.51 418.31L531.24 417.64L529.01 416.89L526.83 416.06L524.68 415.14L522.58 414.16L520.53 413.09L518.53 411.96L516.58 410.75L514.68 409.48L512.83 408.14L511.04 406.73L509.31 405.26L507.64 403.73L506.04 402.14L504.49 400.5L503.02 398.79L501.61 397.04L500.27 395.23L499.01 393.37L497.82 391.46L496.7 389.51L495.66 387.51L494.71 385.46L493.83 383.38L493.04 381.26L492.33 379.1L491.72 376.91L491.19 374.68L490.75 372.42L490.41 370.13L490.16 367.81L490.01 365.47L489.96 363.1L490.01 360.74L490.16 358.39L490.41 356.08L490.75 353.79L491.19 351.53L491.72 349.3L492.33 347.11L493.04 344.95L493.83 342.82L494.71 340.74L495.66 338.7L496.7 336.7L497.82 334.75L499.01 332.84L500.27 330.98L501.61 329.17L503.02 327.41L503.08 327.34L502.56 325.87L502.05 324.29L501.55 322.65L501.08 320.97L500.64 319.23L500.22 317.44L499.82 315.61L499.45 313.74L499.1 311.82L498.78 309.86L498.49 307.86L498.23 305.82L497.99 303.75L497.79 301.64L497.61 299.5L497.46 297.34L497.35 295.14L497.27 292.91L497.22 290.66L497.2 288.39L497.22 286.12L497.27 283.87L497.35 281.64L497.46 279.45L497.61 277.28L497.79 275.14L497.99 273.03L498.23 270.96L498.49 268.92L498.78 266.92L499.1 264.96L499.45 263.04L499.82 261.17L500.22 259.34L500.64 257.55L501.08 255.82L501.55 254.13L502.05 252.49L502.56 250.91L503.1 249.39L503.65 247.92L504.23 246.51L504.82 245.16L505.44 243.87L506.07 242.65L506.72 241.49L507.39 240.4L508.08 239.38L508.78 238.43L509.49 237.56L510.22 236.76L510.96 236.03L511.72 235.39L512.48 234.82L513.26 234.34L514.06 233.94L514.86 233.63L515.67 233.4L516.49 233.26L517.32 233.22L518.15 233.26L518.97 233.4L519.78 233.63L520.58 233.94L521.37 234.34L522.15 234.82L522.92 235.39L523.67 236.03L524.41 236.76L525.14 237.56L525.86 238.43L526.56 239.38L527.24 240.4L527.91 241.49L528.56 242.65L529.19 243.87L529.81 245.16L530.4 246.51L530.98 247.92L531.54 249.39L532.07 250.91L532.59 252.49L533.08 254.13L533.55 255.82L533.99 257.55L534.42 259.34L534.81 261.17L535.18 263.04L535.53 264.96L535.85 266.92L536.14 268.92L536.41 270.96L536.64 273.03L536.85 275.14L537.02 277.28L537.17 279.45L537.28 281.64L537.36 283.87L537.41 286.12L537.43 288.39L537.41 290.66L537.36 292.91L537.28 295.14L537.17 297.34L537.02 299.5L536.85 301.64L536.64 303.75L536.41 305.82L536.23 307.22L538.15 306.8L540.52 306.38L542.93 306.06L545.36 305.82L547.82 305.68L550.3 305.63L552.79 305.68L555.25 305.82L557.68 306.06L560.09 306.38L562.46 306.8L564.39 307.22L564.2 305.82L563.97 303.75L563.76 301.64L563.59 299.5L563.44 297.34L563.33 295.14L563.25 292.91L563.2 290.66L563.18 288.39L563.2 286.12L563.25 283.87L563.33 281.64L563.44 279.45L563.59 277.28L563.76 275.14L563.97 273.03L564.2 270.96L564.47 268.92L564.76 266.92L565.08 264.96L565.43 263.04L565.8 261.17L566.19 259.34L566.62 257.55L567.06 255.82L567.53 254.13L568.02 252.49L568.54 250.91L569.07 249.39L569.63 247.92L570.21 246.51L570.8 245.16L571.42 243.87L572.05 242.65L572.7 241.49L573.37 240.4L574.05 239.38L574.75 238.43L575.47 237.56L576.2 236.76L576.94 236.03L577.69 235.39L578.46 234.82L579.24 234.34L580.03 233.94L580.83 233.63L581.64 233.4L582.46 233.26L583.29 233.22L584.12 233.26L584.94 233.4Z" id="aNGI7A9NT"></path><path d="M528.67 370.36C528.67 373.93 526.12 376.84 522.99 376.84C519.86 376.84 517.32 373.93 517.32 370.36C517.32 368.06 519.2 363.92 522.98 357.96C523.1 357.77 523.38 357.77 523.49 357.97C526.94 363.93 528.67 368.06 528.67 370.36Z" id="bN3326Cgn"></path><path d="M532.94 382.93C533.3 385.12 531.82 387.19 529.63 387.55C527.44 387.91 525.37 386.43 525.01 384.24C524.77 382.84 525.67 380.1 527.7 376.02C527.77 375.87 527.98 375.84 528.09 375.97C531.09 379.21 532.71 381.53 532.94 382.93Z" id="c5sKRNVqfU"></path><path d="M524.5 390.05C524.24 393.17 521.5 395.49 518.37 395.23C515.25 394.97 512.93 392.22 513.19 389.1C513.36 387.1 515.53 383.66 519.71 378.78C519.87 378.6 520.16 378.63 520.27 378.84C523.26 384.31 524.67 388.05 524.5 390.05Z" id="c3e2Mxc0WF"></path><path d="M572.65 337.82C562.27 337.82 559.93 338.63 557.76 341.07C557.76 341.07 557.76 341.07 557.76 341.07C556.59 342.15 555.51 343.32 554.52 342.78C553.7 342.24 552.62 342.15 549.92 342.15C547.21 342.15 546.13 342.24 545.32 342.78C544.32 343.41 543.24 342.15 542.07 341.07C542.07 341.07 542.07 341.07 542.07 341.07C539.9 338.63 537.56 337.82 527.19 337.82C523.85 337.82 511.76 337.82 508.15 339.26C507.79 339.44 507.52 339.71 507.52 340.17C507.52 340.46 507.52 342.84 507.52 343.14C507.52 343.59 507.88 343.95 508.33 344.04C508.96 344.22 509.69 344.4 509.96 344.58C510.68 344.95 511.4 346.03 511.4 347.02C511.49 349.55 511.49 351.89 511.85 354.6C512.75 361.18 518.26 368.67 527.28 368.67C539.27 368.67 543.96 359.83 545.32 353.06C545.59 351.71 545.68 350.27 545.68 349C545.68 349 545.68 349 545.68 349C545.68 346.75 547.48 345.76 550.1 345.76C552.71 345.76 554.43 346.75 554.52 349C554.52 349 554.52 349 554.52 349C554.43 350.36 554.61 351.71 554.88 353.06C556.23 359.83 560.92 368.67 572.92 368.67C581.85 368.67 587.44 361.18 588.34 354.6C588.7 351.89 588.61 349.55 588.7 347.02C588.7 346.12 589.42 344.95 590.14 344.58C590.41 344.4 591.23 344.22 591.77 344.04C592.22 343.95 592.58 343.59 592.58 343.14C592.58 342.84 592.58 340.46 592.58 340.17C592.22 339.8 591.95 339.44 591.59 339.26C587.98 337.82 575.98 337.82 572.65 337.82ZM527.09 367.41C519.34 367.41 513.66 360.73 513.66 352.97C513.66 349.82 513.66 347.56 514.83 345.49C517.08 341.43 521.95 339.62 527.09 339.62C531.97 339.62 538.01 340.8 540.99 344.31C542.79 346.48 542.7 350.09 542.61 352.97C542.43 360.01 534.85 367.41 527.09 367.41ZM557.04 353.06C556.95 350.18 556.95 346.57 558.75 344.4C561.73 340.89 567.77 339.71 572.65 339.71C577.79 339.71 582.66 341.52 584.91 345.58C586.08 347.65 586.08 349.91 586.08 353.06C586.08 360.82 580.31 367.5 572.56 367.5C564.8 367.5 557.13 360.1 557.04 353.06Z" id="b3XKfOpoym"></path></defs><g><g><use xlink:href="#aNGI7A9NT" opacity="1" fill="#ffffff" fill-opacity="0.99"></use><g><use xlink:href="#aNGI7A9NT" opacity="1" fill-opacity="0" stroke="#800080" stroke-width="3" stroke-opacity="1"></use></g></g><g><use xlink:href="#bN3326Cgn" opacity="1" fill="#619cba" fill-opacity="1"></use><g><use xlink:href="#bN3326Cgn" opacity="1" fill-opacity="0" stroke="#0f72c9" stroke-width="0" stroke-opacity="1"></use></g></g><g><use xlink:href="#c5sKRNVqfU" opacity="1" fill="#619cba" fill-opacity="1"></use><g><use xlink:href="#c5sKRNVqfU" opacity="1" fill-opacity="0" stroke="#0f72c9" stroke-width="0" stroke-opacity="1"></use></g></g><g><use xlink:href="#c3e2Mxc0WF" opacity="1" fill="#619cba" fill-opacity="1"></use><g><use xlink:href="#c3e2Mxc0WF" opacity="1" fill-opacity="0" stroke="#0f72c9" stroke-width="0" stroke-opacity="1"></use></g></g><g><use xlink:href="#b3XKfOpoym" opacity="1" fill="#000000" fill-opacity="1"></use><g><use xlink:href="#b3XKfOpoym" opacity="1" fill-opacity="0" stroke="#000000" stroke-width="1" stroke-opacity="0"></use></g></g></g></svg>