<?xml version="1.0" encoding="UTF-8" standalone="no"?>
<!DOCTYPE svg PUBLIC "-//W3C//DTD SVG 1.1//EN" "http://www.w3.org/Graphics/SVG/1.1/DTD/svg11.dtd">
<svg version="1.1" xmlns="http://www.w3.org/2000/svg" xmlns:xlink="http://www.w3.org/1999/xlink" preserveAspectRatio="xMidYMid meet" viewBox="498.25473749611655 427.12068965517244 125.18965517241378 191.85632183908035" width="120.69" height="187.36"><defs><path d="M595.55 429.03L596.35 429.34L597.14 429.74L597.92 430.23L598.69 430.79L599.44 431.44L600.19 432.16L600.91 432.96L601.63 433.83L602.33 434.78L603.01 435.8L603.68 436.89L604.33 438.05L604.96 439.27L605.58 440.56L606.18 441.91L606.75 443.32L607.31 444.79L607.84 446.31L608.36 447.9L608.85 449.53L609.32 451.22L609.77 452.95L610.19 454.74L610.58 456.57L610.96 458.45L611.3 460.37L611.62 462.33L611.91 464.33L612.18 466.36L612.41 468.43L612.62 470.54L612.79 472.68L612.94 474.85L613.05 477.05L613.14 479.27L613.19 481.52L613.2 483.79L613.19 486.07L613.14 488.32L613.05 490.54L612.94 492.74L612.79 494.91L612.62 497.05L612.41 499.15L612.18 501.22L611.91 503.26L611.62 505.26L611.3 507.22L610.96 509.14L610.58 511.02L610.19 512.85L609.77 514.63L609.32 516.37L608.85 518.06L608.36 519.69L607.84 521.27L607.33 522.75L607.39 522.82L608.79 524.57L610.13 526.38L611.4 528.24L612.59 530.15L613.7 532.1L614.74 534.1L615.7 536.14L616.57 538.23L617.37 540.35L618.07 542.51L618.69 544.7L619.22 546.93L619.65 549.19L620 551.48L620.24 553.8L620.39 556.14L620.44 558.51L620.39 560.87L620.24 563.22L620 565.53L619.65 567.82L619.22 570.08L618.69 572.31L618.07 574.5L617.37 576.66L616.57 578.78L615.7 580.87L614.74 582.91L613.7 584.91L612.59 586.86L611.4 588.77L610.13 590.63L608.79 592.44L607.39 594.2L605.91 595.9L604.37 597.55L602.76 599.14L601.09 600.67L599.36 602.14L597.57 603.54L595.73 604.88L593.83 606.16L591.88 607.36L589.87 608.5L587.82 609.56L585.72 610.55L583.58 611.46L581.39 612.29L579.16 613.05L576.9 613.72L574.59 614.31L572.25 614.81L569.88 615.22L567.48 615.55L565.05 615.79L562.59 615.93L560.1 615.98L557.61 615.93L555.15 615.79L552.72 615.55L550.32 615.22L547.94 614.81L545.61 614.31L543.3 613.72L541.03 613.05L538.81 612.29L536.62 611.46L534.48 610.55L532.38 609.56L530.33 608.5L528.32 607.36L526.37 606.16L524.47 604.88L522.63 603.54L520.84 602.14L519.11 600.67L517.44 599.14L515.83 597.55L514.29 595.9L512.81 594.2L511.4 592.44L510.07 590.63L508.8 588.77L507.61 586.86L506.49 584.91L505.46 582.91L504.5 580.87L503.62 578.78L502.83 576.66L502.13 574.5L501.51 572.31L500.98 570.08L500.55 567.82L500.2 565.53L499.95 563.22L499.81 560.87L499.75 558.51L499.81 556.14L499.95 553.8L500.2 551.48L500.55 549.19L500.98 546.93L501.51 544.7L502.13 542.51L502.83 540.35L503.62 538.23L504.5 536.14L505.46 534.1L506.49 532.1L507.61 530.15L508.8 528.24L510.07 526.38L511.4 524.57L512.81 522.82L512.87 522.75L512.35 521.27L511.84 519.69L511.35 518.06L510.88 516.37L510.43 514.63L510.01 512.85L509.61 511.02L509.24 509.14L508.9 507.22L508.58 505.26L508.29 503.26L508.02 501.22L507.79 499.15L507.58 497.05L507.41 494.91L507.26 492.74L507.15 490.54L507.06 488.32L507.01 486.07L507 483.79L507.01 481.52L507.06 479.27L507.15 477.05L507.26 474.85L507.41 472.68L507.58 470.54L507.79 468.43L508.02 466.36L508.29 464.33L508.58 462.33L508.9 460.37L509.24 458.45L509.61 456.57L510.01 454.74L510.43 452.95L510.88 451.22L511.35 449.53L511.84 447.9L512.35 446.31L512.89 444.79L513.45 443.32L514.02 441.91L514.62 440.56L515.23 439.27L515.87 438.05L516.52 436.89L517.19 435.8L517.87 434.78L518.57 433.83L519.28 432.96L520.01 432.16L520.76 431.44L521.51 430.79L522.28 430.23L523.06 429.74L523.85 429.34L524.65 429.03L525.46 428.8L526.28 428.67L527.11 428.62L527.94 428.67L528.76 428.8L529.57 429.03L530.37 429.34L531.16 429.74L531.94 430.23L532.71 430.79L533.47 431.44L534.21 432.16L534.94 432.96L535.65 433.83L536.35 434.78L537.04 435.8L537.7 436.89L538.35 438.05L538.99 439.27L539.6 440.56L540.2 441.91L540.78 443.32L541.33 444.79L541.87 446.31L542.38 447.9L542.87 449.53L543.34 451.22L543.79 452.95L544.21 454.74L544.61 456.57L544.98 458.45L545.33 460.37L545.64 462.33L545.94 464.33L546.2 466.36L546.44 468.43L546.64 470.54L546.82 472.68L546.96 474.85L547.08 477.05L547.16 479.27L547.21 481.52L547.23 483.79L547.21 486.07L547.16 488.32L547.08 490.54L546.96 492.74L546.82 494.91L546.64 497.05L546.44 499.15L546.2 501.22L546.02 502.62L547.94 502.2L550.32 501.79L552.72 501.46L555.15 501.23L557.61 501.08L560.1 501.03L562.59 501.08L565.05 501.23L567.48 501.46L569.88 501.79L572.25 502.2L574.18 502.62L574 501.22L573.76 499.15L573.56 497.05L573.38 494.91L573.24 492.74L573.12 490.54L573.04 488.32L572.99 486.07L572.97 483.79L572.99 481.52L573.04 479.27L573.12 477.05L573.24 474.85L573.38 472.68L573.56 470.54L573.76 468.43L574 466.36L574.26 464.33L574.55 462.33L574.87 460.37L575.22 458.45L575.59 456.57L575.99 454.74L576.41 452.95L576.86 451.22L577.33 449.53L577.82 447.9L578.33 446.31L578.87 444.79L579.42 443.32L580 441.91L580.6 440.56L581.21 439.27L581.84 438.05L582.5 436.89L583.16 435.8L583.85 434.78L584.55 433.83L585.26 432.96L585.99 432.16L586.73 431.44L587.49 430.79L588.26 430.23L589.04 429.74L589.83 429.34L590.63 429.03L591.44 428.8L592.26 428.67L593.09 428.62L593.92 428.67L594.74 428.8L595.55 429.03Z" id="bh9MewOc7"></path><path d="M582.44 533.22C572.07 533.22 569.72 534.03 567.56 536.47C567.56 536.47 567.56 536.47 567.56 536.47C566.38 537.55 565.3 538.72 564.31 538.18C563.5 537.64 562.42 537.55 559.71 537.55C557 537.55 555.92 537.64 555.11 538.18C554.12 538.81 553.04 537.55 551.86 536.47C551.86 536.47 551.86 536.47 551.86 536.47C549.7 534.03 547.35 533.22 536.98 533.22C533.64 533.22 521.56 533.22 517.95 534.67C517.59 534.85 517.32 535.12 517.32 535.57C517.32 535.87 517.32 538.25 517.32 538.54C517.32 538.99 517.68 539.36 518.13 539.45C518.76 539.63 519.48 539.81 519.75 539.99C520.47 540.35 521.19 541.43 521.19 542.42C521.29 544.95 521.29 547.29 521.65 550C522.55 556.58 528.05 564.07 537.07 564.07C549.07 564.07 553.76 555.23 555.11 548.47C555.38 547.11 555.47 545.67 555.47 544.41C555.47 544.41 555.47 544.41 555.47 544.41C555.47 542.15 557.27 541.16 559.89 541.16C562.51 541.16 564.22 542.15 564.31 544.41C564.31 544.41 564.31 544.41 564.31 544.41C564.22 545.76 564.4 547.11 564.67 548.47C566.02 555.23 570.71 564.07 582.71 564.07C591.64 564.07 597.23 556.58 598.13 550C598.5 547.29 598.41 544.95 598.5 542.42C598.5 541.52 599.22 540.35 599.94 539.99C600.21 539.81 601.02 539.63 601.56 539.45C602.01 539.36 602.37 538.99 602.37 538.54C602.37 538.25 602.37 535.87 602.37 535.57C602.01 535.21 601.74 534.85 601.38 534.67C597.77 533.22 585.78 533.22 582.44 533.22ZM536.89 562.81C529.13 562.81 523.45 556.13 523.45 548.38C523.45 545.22 523.45 542.96 524.62 540.89C526.88 536.83 531.75 535.03 536.89 535.03C541.76 535.03 547.8 536.2 550.78 539.72C552.58 541.88 552.49 545.49 552.4 548.38C552.22 555.41 544.65 562.81 536.89 562.81ZM566.84 548.47C566.75 545.58 566.75 541.97 568.55 539.81C571.53 536.29 577.57 535.12 582.44 535.12C587.58 535.12 592.45 536.92 594.71 540.98C595.88 543.05 595.88 545.31 595.88 548.47C595.88 556.22 590.11 562.9 582.35 562.9C574.59 562.9 566.93 555.5 566.84 548.47Z" id="brgolvF3J"></path></defs><g><g><use xlink:href="#bh9MewOc7" opacity="1" fill="#ffffff" fill-opacity="0.99"></use><g><use xlink:href="#bh9MewOc7" opacity="1" fill-opacity="0" stroke="#800080" stroke-width="3" stroke-opacity="1"></use></g></g><g><use xlink:href="#brgolvF3J" opacity="1" fill="#000000" fill-opacity="1"></use><g><use xlink:href="#brgolvF3J" opacity="1" fill-opacity="0" stroke="#000000" stroke-width="1" stroke-opacity="0"></use></g></g></g></svg>